M48
;Layer_Color=9474304
;FILE_FORMAT=4:4
METRIC,LZ
;TYPE=PLATED
T1F00S00C0.3000
T2F00S00C1.0200
T3F00S00C1.4000
%
T01
X0149Y00035
X01515
X015275Y0006
X015025
X01515Y00085
X0154
X0149
X015025Y0011
X0149Y00135
X015525Y0016
X015775
X016025
X016275
X0164Y00185
X01665
X016775Y0016
X0169Y00135
X01665
X0164
X01615
X0159
X016025Y0011
X016275
X016525
X016775
X0169Y00085
X01665
X0164
X016775Y0006
X01665Y00035
X01615
Y00185
X0159
X01565
X015775Y0021
X016025
X016275
X01615Y00235
X0159
X01565
X0154
X01515
X0149
X015025Y0026
X015275
X015525
X015775
X016025
X01615Y00285
X0164
X01665
X0169
X017025Y0031
X016775
X016525
X016275
X01615Y00335
X01665
X0169
X017025Y0026
X016775
X016525
X0169Y00235
X017025Y0021
X015525
X015275
X015025
X01515Y00285
X0154
X01565
X015775Y0031
X015525
X015275
X015025
X0149Y00285
X01565Y00335
X014775Y0031
X014525
X014275
X014025
X013775
X013525
X013275
X013025
X012775
X012525
X012275
X012025
X011775
X011525
X011025
X01115Y00335
Y00235
X011275Y0021
X011525
X01165Y00235
X0119
X01215
X0124
X01265
X0129
X01315
X0134
X01365
X0139
X014025Y0021
X013775
X013525
X013275
X013025
X012775
X012525
X012275
X012025
X01215Y00185
X0124
X01265
X0129
X01315
X0134
X01365
X0139
X01415
X0144
X014525Y0016
X014275
X014025
X013775
X013525
X013275
X013025
X012775
X012525
X01265Y00135
X0129
X01315
X0134
X01365
X0139
X01415
X0144
X01465
X014775Y0011
X014525
X014275
X014025
X013775
X013525
X013275
X013025
X01315Y00085
X0134
X01365
X0139
X01415
X0144
X01465
X014775Y0006
X014275
X01415Y00035
X0139
X01365
X013775Y0006
X013525
X013025
X01315Y00035
X01265
Y00085
X0124
X012525Y0011
X012275
X01215Y00135
X0119
X012025Y0016
X011775
X01165Y00185
X0114
X011275Y0016
X011025
X01115Y00135
X0114
X011525Y0011
X011775
X0119Y00085
X01165
X0114
X01115
X011275Y0011
X011025
X01115Y00035
X0119
X01215
X01265Y00335
X01315
X01365
X0144
Y00285
X01465
X014775Y0026
X014525
X0109Y00235
X010775Y0021
X010525
X010275
X010025
X009775
X009525
X009275
X009025
X008775
X00865Y00185
X0084
X008525Y0016
X008775
X0089Y00135
X00915
X009275Y0016
X009525
X009775
X010025
X010275
X010525
X010775
X0109Y00185
X01065
X0104
X01015
X0099
X00965
X0094
X00915
X009275Y0011
X009025
X0089Y00085
X00865
X0084
X00815
X0079
X00765
X0074
X00715
X007275Y0011
X007525
X007775
X008025
X008275
X008525
X0084Y00135
X00815
X0079
X00765
X0074
X00715
X007275Y0016
X007525
X007775
X008025
X0079Y00185
X00765
X0074
X00715
X007275Y0021
X007525
X008025
X008275
X007025
Y0016
Y0011
X007275Y0006
X007525
X00865Y00035
X0089
X009525Y0006
X00965Y00085
X0094
X009775Y0011
X010025
X010275
X010525
X010775
X0109Y00135
X01065
X0104
X01015
X0099
X00965
X01015Y00085
X0104
X01065
X0109
X010775Y0006
X010525
Y0031
X010775
X01065Y00335
X0104
X010275Y0031
X010025
X009775
X009525
X009275
X0099Y00335
X00765
X00565
X0054
X0044
X00415
X00315
X003275Y0016
X003525
X003775
X004025
X004275
X004525
X004775
X005025
X00515Y00135
X0054
X005525Y0011
X005275
X005025
X004775
X004525
X004275
X004025
X003775
X003525
X00365Y00135
X0039
X00415
X0044
X00465
X0049
Y00085
X00515
X0054
X00565
X0059
X0064
X00665
X0069
X006775Y0011
X006525
X006275
X0064Y00135
X00665
X0069
X006775Y0016
X006525
X006275
X006025
X005775
X0059Y00185
X00615
X0064
X00665
X0069
X006775Y0021
X006525
X006275
X006025
X005775
X005525
X005275
X0054Y00185
X00565
X0059Y00135
X00615
X0059Y00035
X00565
X0049
X004525Y0006
X004275
X0044Y00085
X00465
X00415
X0039
X0034
Y00135
X003025Y0016
Y0011
X006775Y0006
X002775
X002525
X00265Y00085
X002525Y0011
X0029Y00135
X00265Y00035
X0024
X00215
Y00085
X0014
X00115
X001275Y0011
X001525
X0014Y00135
X00115
X0009
X00065
X0004
Y00185
X00065
X0009
X00115
X0014
X001525Y0021
X001275
X001025
X000775
X0009Y00235
X00115
X001025Y0026
X000775
X00065Y00235
X0004
X000775Y0016
X001025
X001275
X001025Y0011
X000775
X00065Y00085
X0004
Y00035
X00065
X0009
X00115
X0014
X001525Y0006
X001275
X001025
X000775
X001025Y0031
X002275
X012775Y0036
X013025
X013275
X013525
X014025
X016025
X016275
X016525
X016775
X017025
T02
X000296Y000452
Y000706
Y00096
Y001214
Y001468
Y001722
Y001976
Y00223
Y002484
Y002738
Y002992
Y003246
Y0035
X00055
Y003246
Y002992
Y002738
Y002484
Y00223
Y001976
Y001722
Y001468
Y001214
Y00096
Y000706
Y000452
X0017
Y000706
Y00096
Y001214
Y001468
Y001722
Y001976
Y00223
Y002484
Y002738
Y002992
Y003246
Y0035
X001954
Y003246
Y002992
Y002738
Y002484
Y00223
Y001976
Y001722
Y001468
Y001214
Y00096
Y000706
Y000452
T03
X015475Y0005
X015975
X016475
X0166Y0017
Y0022
X016475Y003375
X015975
X015475
X014625
X014125
X013325
X012825
X012325
X011475
X010975
Y0005
X011475
X01235
X01285
X01335
X0141
X0146
X010225
X009725
X009225
X00835
X00785
X0071
X00706458Y003375
X00785
X00835
X00918958
X00968958
X01018958
X00656458
X00606457
X005225
X004725
X003925
X003425
X003475Y0005
X003975
X004725
X005225
X0061
X0066
X002975
X002925Y003375
M30
