G04*
G04 #@! TF.GenerationSoftware,Altium Limited,Altium Designer,21.6.1 (37)*
G04*
G04 Layer_Color=8388736*
%FSLAX44Y44*%
%MOMM*%
G71*
G04*
G04 #@! TF.SameCoordinates,826819EA-234B-40C6-A563-737F89A4C456*
G04*
G04*
G04 #@! TF.FilePolarity,Negative*
G04*
G01*
G75*
%ADD18R,1.0000X0.8000*%
%ADD19R,1.1000X1.2000*%
%ADD20R,1.6300X1.6300*%
%ADD21C,1.6300*%
%ADD22R,2.2000X2.2000*%
%ADD23C,2.2000*%
%ADD24R,2.2000X2.2000*%
D18*
X230000Y77500D02*
D03*
Y62500D02*
D03*
X90000Y72500D02*
D03*
Y57500D02*
D03*
X1540000Y207500D02*
D03*
Y222500D02*
D03*
D19*
X230000Y117500D02*
D03*
Y102500D02*
D03*
X90000Y107500D02*
D03*
Y92500D02*
D03*
X1540000Y177500D02*
D03*
Y192500D02*
D03*
D20*
X195400Y350000D02*
D03*
X55000D02*
D03*
D21*
X170000D02*
D03*
X195400Y324600D02*
D03*
X170000D02*
D03*
X195400Y299200D02*
D03*
X170000D02*
D03*
X195400Y273800D02*
D03*
X170000D02*
D03*
X195400Y248400D02*
D03*
X170000D02*
D03*
X195400Y223000D02*
D03*
X170000D02*
D03*
X195400Y197600D02*
D03*
X170000D02*
D03*
X195400Y172200D02*
D03*
X170000D02*
D03*
X195400Y146800D02*
D03*
X170000D02*
D03*
X195400Y121400D02*
D03*
X170000D02*
D03*
X195400Y96000D02*
D03*
X170000D02*
D03*
X195400Y70600D02*
D03*
X170000D02*
D03*
X195400Y45200D02*
D03*
X170000D02*
D03*
X29600Y350000D02*
D03*
X55000Y324600D02*
D03*
X29600D02*
D03*
X55000Y299200D02*
D03*
X29600D02*
D03*
X55000Y273800D02*
D03*
X29600D02*
D03*
X55000Y248400D02*
D03*
X29600D02*
D03*
X55000Y223000D02*
D03*
X29600D02*
D03*
X55000Y197600D02*
D03*
X29600D02*
D03*
X55000Y172200D02*
D03*
X29600D02*
D03*
X55000Y146800D02*
D03*
X29600D02*
D03*
X55000Y121400D02*
D03*
X29600D02*
D03*
X55000Y96000D02*
D03*
X29600D02*
D03*
X55000Y70600D02*
D03*
X29600D02*
D03*
X55000Y45200D02*
D03*
X29600D02*
D03*
D22*
X1097500Y337500D02*
D03*
X918958D02*
D03*
X785000D02*
D03*
X606457D02*
D03*
X472500D02*
D03*
X292500D02*
D03*
X1547500D02*
D03*
X1232500D02*
D03*
X1412500D02*
D03*
X1647500Y50000D02*
D03*
X1460000D02*
D03*
X1335000D02*
D03*
X1147500D02*
D03*
X1022500D02*
D03*
X835000D02*
D03*
X710000D02*
D03*
X522500D02*
D03*
X397500D02*
D03*
D23*
X1147500Y337500D02*
D03*
X1018958D02*
D03*
X968958D02*
D03*
X835000D02*
D03*
X706458D02*
D03*
X656458D02*
D03*
X522500D02*
D03*
X392500D02*
D03*
X342500D02*
D03*
X1647500D02*
D03*
X1597500D02*
D03*
X1332500D02*
D03*
X1282500D02*
D03*
X1462500D02*
D03*
X1660000Y170000D02*
D03*
X1547500Y50000D02*
D03*
X1597500D02*
D03*
X1410000D02*
D03*
X1235000D02*
D03*
X1285000D02*
D03*
X1097500D02*
D03*
X922500D02*
D03*
X972500D02*
D03*
X785000D02*
D03*
X610000D02*
D03*
X660000D02*
D03*
X472500D02*
D03*
X297500D02*
D03*
X347500D02*
D03*
D24*
X1660000Y220000D02*
D03*
M02*
