G04*
G04 #@! TF.GenerationSoftware,Altium Limited,Altium Designer,21.6.1 (37)*
G04*
G04 Layer_Color=65535*
%FSLAX44Y44*%
%MOMM*%
G71*
G04*
G04 #@! TF.SameCoordinates,826819EA-234B-40C6-A563-737F89A4C456*
G04*
G04*
G04 #@! TF.FilePolarity,Positive*
G04*
G01*
G75*
%ADD10C,0.1000*%
%ADD11C,0.2000*%
%ADD12C,0.3000*%
%ADD13C,0.1800*%
%ADD14C,0.5000*%
%ADD15C,0.2540*%
D10*
X1061500Y337500D02*
G03*
X1062500Y337500I500J0D01*
G01*
D02*
G03*
X1061500Y337500I-500J0D01*
G01*
X889958D02*
G03*
X890957Y337500I500J0D01*
G01*
D02*
G03*
X889958Y337500I-500J0D01*
G01*
X749000D02*
G03*
X750000Y337500I500J0D01*
G01*
D02*
G03*
X749000Y337500I-500J0D01*
G01*
X577458D02*
G03*
X578457Y337500I500J0D01*
G01*
D02*
G03*
X577458Y337500I-500J0D01*
G01*
X436500D02*
G03*
X437500Y337500I500J0D01*
G01*
D02*
G03*
X436500Y337500I-500J0D01*
G01*
X263500D02*
G03*
X264500Y337500I500J0D01*
G01*
D02*
G03*
X263500Y337500I-500J0D01*
G01*
X1518500D02*
G03*
X1519500Y337500I500J0D01*
G01*
D02*
G03*
X1518500Y337500I-500J0D01*
G01*
X1203500D02*
G03*
X1204500Y337500I500J0D01*
G01*
D02*
G03*
X1203500Y337500I-500J0D01*
G01*
X1376500D02*
G03*
X1377500Y337500I500J0D01*
G01*
D02*
G03*
X1376500Y337500I-500J0D01*
G01*
X1660000Y256000D02*
G03*
X1660000Y255000I0J-500D01*
G01*
D02*
G03*
X1660000Y256000I0J500D01*
G01*
X1676500Y50000D02*
G03*
X1675500Y50000I-500J0D01*
G01*
D02*
G03*
X1676500Y50000I500J0D01*
G01*
X1496000D02*
G03*
X1495000Y50000I-500J0D01*
G01*
D02*
G03*
X1496000Y50000I500J0D01*
G01*
X1364000D02*
G03*
X1363000Y50000I-500J0D01*
G01*
D02*
G03*
X1364000Y50000I500J0D01*
G01*
X1183500D02*
G03*
X1182500Y50000I-500J0D01*
G01*
D02*
G03*
X1183500Y50000I500J0D01*
G01*
X1051500D02*
G03*
X1050500Y50000I-500J0D01*
G01*
D02*
G03*
X1051500Y50000I500J0D01*
G01*
X871000D02*
G03*
X870000Y50000I-500J0D01*
G01*
D02*
G03*
X871000Y50000I500J0D01*
G01*
X739000D02*
G03*
X738000Y50000I-500J0D01*
G01*
D02*
G03*
X739000Y50000I500J0D01*
G01*
X558500D02*
G03*
X557500Y50000I-500J0D01*
G01*
D02*
G03*
X558500Y50000I500J0D01*
G01*
X426500D02*
G03*
X425500Y50000I-500J0D01*
G01*
D02*
G03*
X426500Y50000I500J0D01*
G01*
D11*
X233500Y68000D02*
Y72000D01*
X226500Y68000D02*
Y72000D01*
X226625Y108375D02*
X230000Y111750D01*
X233250Y108500D01*
X226250Y124500D02*
X234500D01*
X86625Y98375D02*
X90000Y101750D01*
X93250Y98500D01*
X86250Y114500D02*
X94500D01*
X93500Y63000D02*
Y67000D01*
X86500Y63000D02*
Y67000D01*
X1540000Y183250D02*
X1543375Y186625D01*
X1536750Y186500D02*
X1540000Y183250D01*
X1535500Y170500D02*
X1543750D01*
X1536500Y213000D02*
Y217000D01*
X1543500Y213000D02*
Y217000D01*
X1067500Y377500D02*
X1180000D01*
Y295000D02*
Y377500D01*
X1067500Y295000D02*
X1180000D01*
X1067500D02*
Y377500D01*
X1051458Y295000D02*
Y317500D01*
Y377500D01*
X891458D02*
X1051458D01*
X891458Y295000D02*
X1051458D01*
X891458D02*
Y377500D01*
X1051458Y295000D02*
Y317500D01*
X755000Y377500D02*
X867500D01*
Y295000D02*
Y377500D01*
X755000Y295000D02*
X867500D01*
X755000D02*
Y377500D01*
X738958Y295000D02*
Y317500D01*
Y377500D01*
X578957D02*
X738958D01*
X578957Y295000D02*
X738958D01*
X578957D02*
Y377500D01*
X738958Y295000D02*
Y317500D01*
X442500Y377500D02*
X555000D01*
Y295000D02*
Y377500D01*
X442500Y295000D02*
X555000D01*
X442500D02*
Y377500D01*
X425000Y295000D02*
Y317500D01*
Y377500D01*
X265000D02*
X425000D01*
X265000Y295000D02*
X425000D01*
X265000D02*
Y377500D01*
X425000Y295000D02*
Y317500D01*
X1680000Y295000D02*
Y317500D01*
Y377500D01*
X1520000D02*
X1680000D01*
X1520000Y295000D02*
X1680000D01*
X1520000D02*
Y377500D01*
X1680000Y295000D02*
Y317500D01*
X1365000Y295000D02*
Y317500D01*
Y377500D01*
X1205000D02*
X1365000D01*
X1205000Y295000D02*
X1365000D01*
X1205000D02*
Y377500D01*
X1365000Y295000D02*
Y317500D01*
X1382500Y377500D02*
X1495000D01*
Y295000D02*
Y377500D01*
X1382500Y295000D02*
X1495000D01*
X1382500D02*
Y377500D01*
X1700000Y137500D02*
Y250000D01*
X1617500Y137500D02*
X1700000D01*
X1617500D02*
Y250000D01*
X1700000D01*
X1515000Y70000D02*
Y92500D01*
Y10000D02*
Y70000D01*
Y10000D02*
X1675000D01*
X1515000Y92500D02*
X1675000D01*
Y10000D02*
Y92500D01*
X1515000Y70000D02*
Y92500D01*
X1377500Y10000D02*
X1490000D01*
X1377500D02*
Y92500D01*
X1490000D01*
Y10000D02*
Y92500D01*
X1202500Y70000D02*
Y92500D01*
Y10000D02*
Y70000D01*
Y10000D02*
X1362500D01*
X1202500Y92500D02*
X1362500D01*
Y10000D02*
Y92500D01*
X1202500Y70000D02*
Y92500D01*
X1065000Y10000D02*
X1177500D01*
X1065000D02*
Y92500D01*
X1177500D01*
Y10000D02*
Y92500D01*
X890000Y70000D02*
Y92500D01*
Y10000D02*
Y70000D01*
Y10000D02*
X1050000D01*
X890000Y92500D02*
X1050000D01*
Y10000D02*
Y92500D01*
X890000Y70000D02*
Y92500D01*
X752500Y10000D02*
X865000D01*
X752500D02*
Y92500D01*
X865000D01*
Y10000D02*
Y92500D01*
X577500Y70000D02*
Y92500D01*
Y10000D02*
Y70000D01*
Y10000D02*
X737500D01*
X577500Y92500D02*
X737500D01*
Y10000D02*
Y92500D01*
X577500Y70000D02*
Y92500D01*
X440000Y10000D02*
X552500D01*
X440000D02*
Y92500D01*
X552500D01*
Y10000D02*
Y92500D01*
X265000Y70000D02*
Y92500D01*
Y10000D02*
Y70000D01*
Y10000D02*
X425000D01*
X265000Y92500D02*
X425000D01*
Y10000D02*
Y92500D01*
X265000Y70000D02*
Y92500D01*
D12*
X45000Y160000D02*
Y260000D01*
Y160000D02*
X70000D01*
Y260000D01*
X45000D02*
X70000D01*
X185000D02*
X210000D01*
X185000Y160000D02*
Y260000D01*
Y160000D02*
X210000D01*
Y260000D01*
D13*
X6800Y347015D02*
X9133D01*
X7966D01*
Y354013D01*
X6800Y352847D01*
X12631Y354013D02*
X17297D01*
Y352847D01*
X12631Y348181D01*
Y347015D01*
X6800Y321581D02*
X9133D01*
X7966D01*
Y328578D01*
X6800Y327412D01*
X12631Y322747D02*
X13798Y321581D01*
X16130D01*
X17297Y322747D01*
Y327412D01*
X16130Y328578D01*
X13798D01*
X12631Y327412D01*
Y326246D01*
X13798Y325079D01*
X17297D01*
X11465Y296146D02*
X6800D01*
X11465Y300811D01*
Y301977D01*
X10299Y303144D01*
X7966D01*
X6800Y301977D01*
X13798Y296146D02*
X16130D01*
X14964D01*
Y303144D01*
X13798Y301977D01*
X11465Y270711D02*
X6800D01*
X11465Y275376D01*
Y276543D01*
X10299Y277709D01*
X7966D01*
X6800Y276543D01*
X13798D02*
X14964Y277709D01*
X17297D01*
X18463Y276543D01*
Y275376D01*
X17297Y274210D01*
X16130D01*
X17297D01*
X18463Y273044D01*
Y271878D01*
X17297Y270711D01*
X14964D01*
X13798Y271878D01*
X11465Y245277D02*
X6800D01*
X11465Y249942D01*
Y251108D01*
X10299Y252274D01*
X7966D01*
X6800Y251108D01*
X18463Y252274D02*
X13798D01*
Y248776D01*
X16130Y249942D01*
X17297D01*
X18463Y248776D01*
Y246443D01*
X17297Y245277D01*
X14964D01*
X13798Y246443D01*
X11465Y219842D02*
X6800D01*
X11465Y224507D01*
Y225674D01*
X10299Y226840D01*
X7966D01*
X6800Y225674D01*
X18463Y226840D02*
X16130Y225674D01*
X13798Y223341D01*
Y221008D01*
X14964Y219842D01*
X17297D01*
X18463Y221008D01*
Y222175D01*
X17297Y223341D01*
X13798D01*
X11465Y194408D02*
X6800D01*
X11465Y199073D01*
Y200239D01*
X10299Y201405D01*
X7966D01*
X6800Y200239D01*
X13798Y201405D02*
X18463D01*
Y200239D01*
X13798Y195574D01*
Y194408D01*
X11465Y168973D02*
X6800D01*
X11465Y173638D01*
Y174804D01*
X10299Y175971D01*
X7966D01*
X6800Y174804D01*
X13798D02*
X14964Y175971D01*
X17297D01*
X18463Y174804D01*
Y173638D01*
X17297Y172472D01*
X18463Y171306D01*
Y170139D01*
X17297Y168973D01*
X14964D01*
X13798Y170139D01*
Y171306D01*
X14964Y172472D01*
X13798Y173638D01*
Y174804D01*
X14964Y172472D02*
X17297D01*
X11465Y143538D02*
X6800D01*
X11465Y148203D01*
Y149370D01*
X10299Y150536D01*
X7966D01*
X6800Y149370D01*
X13798Y144705D02*
X14964Y143538D01*
X17297D01*
X18463Y144705D01*
Y149370D01*
X17297Y150536D01*
X14964D01*
X13798Y149370D01*
Y148203D01*
X14964Y147037D01*
X18463D01*
X6800Y123935D02*
X7966Y125101D01*
X10299D01*
X11465Y123935D01*
Y122769D01*
X10299Y121603D01*
X9133D01*
X10299D01*
X11465Y120436D01*
Y119270D01*
X10299Y118104D01*
X7966D01*
X6800Y119270D01*
X13798Y123935D02*
X14964Y125101D01*
X17297D01*
X18463Y123935D01*
Y119270D01*
X17297Y118104D01*
X14964D01*
X13798Y119270D01*
Y123935D01*
X6800Y98501D02*
X7966Y99667D01*
X10299D01*
X11465Y98501D01*
Y97334D01*
X10299Y96168D01*
X9133D01*
X10299D01*
X11465Y95002D01*
Y93835D01*
X10299Y92669D01*
X7966D01*
X6800Y93835D01*
X13798Y92669D02*
X16130D01*
X14964D01*
Y99667D01*
X13798Y98501D01*
X6800Y73066D02*
X7966Y74232D01*
X10299D01*
X11465Y73066D01*
Y71900D01*
X10299Y70733D01*
X9133D01*
X10299D01*
X11465Y69567D01*
Y68401D01*
X10299Y67235D01*
X7966D01*
X6800Y68401D01*
X18463Y67235D02*
X13798D01*
X18463Y71900D01*
Y73066D01*
X17297Y74232D01*
X14964D01*
X13798Y73066D01*
X6800Y47632D02*
X7966Y48798D01*
X10299D01*
X11465Y47632D01*
Y46465D01*
X10299Y45299D01*
X9133D01*
X10299D01*
X11465Y44133D01*
Y42966D01*
X10299Y41800D01*
X7966D01*
X6800Y42966D01*
X13798Y47632D02*
X14964Y48798D01*
X17297D01*
X18463Y47632D01*
Y46465D01*
X17297Y45299D01*
X16130D01*
X17297D01*
X18463Y44133D01*
Y42966D01*
X17297Y41800D01*
X14964D01*
X13798Y42966D01*
X211800Y346202D02*
Y353200D01*
X215299D01*
X216465Y352034D01*
Y349701D01*
X215299Y348535D01*
X211800D01*
X218798Y353200D02*
Y346202D01*
X221130Y348535D01*
X223463Y346202D01*
Y353200D01*
X225795Y346202D02*
Y353200D01*
X228128Y350867D01*
X230461Y353200D01*
Y346202D01*
X216465Y327765D02*
X211800D01*
Y320768D01*
X216465D01*
X211800Y324267D02*
X214133D01*
X225795Y320768D02*
X229294D01*
X230461Y321934D01*
X229294Y323100D01*
X226962D01*
X225795Y324267D01*
X226962Y325433D01*
X230461D01*
X233960Y326599D02*
Y325433D01*
X232793D01*
X235126D01*
X233960D01*
Y321934D01*
X235126Y320768D01*
X239791D02*
X242124D01*
X243290Y321934D01*
Y324267D01*
X242124Y325433D01*
X239791D01*
X238625Y324267D01*
Y321934D01*
X239791Y320768D01*
X245623Y318435D02*
Y325433D01*
X249121D01*
X250288Y324267D01*
Y321934D01*
X249121Y320768D01*
X245623D01*
X215299Y299998D02*
X212966D01*
X211800Y298832D01*
Y294167D01*
X212966Y293001D01*
X215299D01*
X216465Y294167D01*
Y298832D01*
X215299Y299998D01*
X223463Y293001D02*
X218798D01*
X223463Y297666D01*
Y298832D01*
X222297Y299998D01*
X219964D01*
X218798Y298832D01*
X215299Y274564D02*
X212966D01*
X211800Y273397D01*
Y268732D01*
X212966Y267566D01*
X215299D01*
X216465Y268732D01*
Y273397D01*
X215299Y274564D01*
X218798Y267566D02*
X221130D01*
X219964D01*
Y274564D01*
X218798Y273397D01*
X223463Y247963D02*
X222297Y249129D01*
X219964D01*
X218798Y247963D01*
Y243298D01*
X219964Y242131D01*
X222297D01*
X223463Y243298D01*
Y245630D01*
X221130D01*
X225795Y242131D02*
Y249129D01*
X230461Y242131D01*
Y249129D01*
X232793D02*
Y242131D01*
X236292D01*
X237458Y243298D01*
Y247963D01*
X236292Y249129D01*
X232793D01*
X123211Y354013D02*
X118546D01*
Y347015D01*
X123211D01*
X118546Y350514D02*
X120879D01*
X125544Y347015D02*
Y354013D01*
X130209Y347015D01*
Y354013D01*
X132542Y347015D02*
Y351680D01*
X134874Y354013D01*
X137207Y351680D01*
Y347015D01*
Y350514D01*
X132542D01*
X139539Y354013D02*
Y347015D01*
X143038D01*
X144205Y348181D01*
Y349348D01*
X143038Y350514D01*
X139539D01*
X143038D01*
X144205Y351680D01*
Y352847D01*
X143038Y354013D01*
X139539D01*
X146537D02*
Y347015D01*
X151202D01*
X158200Y354013D02*
X153535D01*
Y347015D01*
X158200D01*
X153535Y350514D02*
X155867D01*
X123211Y327412D02*
X122045Y328578D01*
X119712D01*
X118546Y327412D01*
Y326246D01*
X119712Y325079D01*
X122045D01*
X123211Y323913D01*
Y322747D01*
X122045Y321581D01*
X119712D01*
X118546Y322747D01*
X125544Y328578D02*
X130209D01*
X127876D01*
Y321581D01*
X137207Y328578D02*
X132542D01*
Y321581D01*
X137207D01*
X132542Y325079D02*
X134874D01*
X139539Y321581D02*
Y328578D01*
X143038D01*
X144205Y327412D01*
Y325079D01*
X143038Y323913D01*
X139539D01*
X153535Y328578D02*
X158200Y321581D01*
Y328578D02*
X153535Y321581D01*
X126710Y303144D02*
Y296146D01*
X130209D01*
X131375Y297312D01*
Y301977D01*
X130209Y303144D01*
X126710D01*
X133708D02*
X136040D01*
X134874D01*
Y296146D01*
X133708D01*
X136040D01*
X139539D02*
Y303144D01*
X143038D01*
X144205Y301977D01*
Y299645D01*
X143038Y298479D01*
X139539D01*
X141872D02*
X144205Y296146D01*
X153535Y303144D02*
X158200Y296146D01*
Y303144D02*
X153535Y296146D01*
X123211Y276543D02*
X122045Y277709D01*
X119712D01*
X118546Y276543D01*
Y275376D01*
X119712Y274210D01*
X122045D01*
X123211Y273044D01*
Y271878D01*
X122045Y270711D01*
X119712D01*
X118546Y271878D01*
X125544Y277709D02*
X130209D01*
X127876D01*
Y270711D01*
X137207Y277709D02*
X132542D01*
Y270711D01*
X137207D01*
X132542Y274210D02*
X134874D01*
X139539Y270711D02*
Y277709D01*
X143038D01*
X144205Y276543D01*
Y274210D01*
X143038Y273044D01*
X139539D01*
X153535Y277709D02*
Y276543D01*
X155867Y274210D01*
X158200Y276543D01*
Y277709D01*
X155867Y274210D02*
Y270711D01*
X126710Y252274D02*
Y245277D01*
X130209D01*
X131375Y246443D01*
Y251108D01*
X130209Y252274D01*
X126710D01*
X133708D02*
X136040D01*
X134874D01*
Y245277D01*
X133708D01*
X136040D01*
X139539D02*
Y252274D01*
X143038D01*
X144205Y251108D01*
Y248776D01*
X143038Y247609D01*
X139539D01*
X141872D02*
X144205Y245277D01*
X153535Y252274D02*
Y251108D01*
X155867Y248776D01*
X158200Y251108D01*
Y252274D01*
X155867Y248776D02*
Y245277D01*
X123211Y225674D02*
X122045Y226840D01*
X119712D01*
X118546Y225674D01*
Y224507D01*
X119712Y223341D01*
X122045D01*
X123211Y222175D01*
Y221008D01*
X122045Y219842D01*
X119712D01*
X118546Y221008D01*
X125544Y226840D02*
X130209D01*
X127876D01*
Y219842D01*
X137207Y226840D02*
X132542D01*
Y219842D01*
X137207D01*
X132542Y223341D02*
X134874D01*
X139539Y219842D02*
Y226840D01*
X143038D01*
X144205Y225674D01*
Y223341D01*
X143038Y222175D01*
X139539D01*
X153535Y226840D02*
X158200D01*
Y225674D01*
X153535Y221008D01*
Y219842D01*
X158200D01*
X126710Y201405D02*
Y194408D01*
X130209D01*
X131375Y195574D01*
Y200239D01*
X130209Y201405D01*
X126710D01*
X133708D02*
X136040D01*
X134874D01*
Y194408D01*
X133708D01*
X136040D01*
X139539D02*
Y201405D01*
X143038D01*
X144205Y200239D01*
Y197906D01*
X143038Y196740D01*
X139539D01*
X141872D02*
X144205Y194408D01*
X153535Y201405D02*
X158200D01*
Y200239D01*
X153535Y195574D01*
Y194408D01*
X158200D01*
X123211Y174804D02*
X122045Y175971D01*
X119712D01*
X118546Y174804D01*
Y173638D01*
X119712Y172472D01*
X122045D01*
X123211Y171306D01*
Y170139D01*
X122045Y168973D01*
X119712D01*
X118546Y170139D01*
X125544Y175971D02*
X130209D01*
X127876D01*
Y168973D01*
X137207Y175971D02*
X132542D01*
Y168973D01*
X137207D01*
X132542Y172472D02*
X134874D01*
X139539Y168973D02*
Y175971D01*
X143038D01*
X144205Y174804D01*
Y172472D01*
X143038Y171306D01*
X139539D01*
X153535Y168973D02*
Y173638D01*
X155867Y175971D01*
X158200Y173638D01*
Y168973D01*
Y172472D01*
X153535D01*
X126710Y150536D02*
Y143538D01*
X130209D01*
X131375Y144705D01*
Y149370D01*
X130209Y150536D01*
X126710D01*
X133708D02*
X136040D01*
X134874D01*
Y143538D01*
X133708D01*
X136040D01*
X139539D02*
Y150536D01*
X143038D01*
X144205Y149370D01*
Y147037D01*
X143038Y145871D01*
X139539D01*
X141872D02*
X144205Y143538D01*
X153535D02*
Y148203D01*
X155867Y150536D01*
X158200Y148203D01*
Y143538D01*
Y147037D01*
X153535D01*
X139539Y125101D02*
Y118104D01*
Y121603D01*
X144205D01*
Y125101D01*
Y118104D01*
X153535Y125101D02*
X158200Y118104D01*
Y125101D02*
X153535Y118104D01*
X139539Y99667D02*
Y92669D01*
Y96168D01*
X144205D01*
Y99667D01*
Y92669D01*
X153535Y99667D02*
Y98501D01*
X155867Y96168D01*
X158200Y98501D01*
Y99667D01*
X155867Y96168D02*
Y92669D01*
X139539Y74232D02*
Y67235D01*
Y70733D01*
X144205D01*
Y74232D01*
Y67235D01*
X153535Y74232D02*
X158200D01*
Y73066D01*
X153535Y68401D01*
Y67235D01*
X158200D01*
X139539Y48798D02*
Y41800D01*
Y45299D01*
X144205D01*
Y48798D01*
Y41800D01*
X153535D02*
Y46465D01*
X155867Y48798D01*
X158200Y46465D01*
Y41800D01*
Y45299D01*
X153535D01*
X71800Y363299D02*
X74466D01*
X73133D01*
Y355301D01*
X71800D01*
X74466D01*
X82463Y363299D02*
X79798D01*
X78464Y361966D01*
Y356634D01*
X79798Y355301D01*
X82463D01*
X83796Y356634D01*
Y361966D01*
X82463Y363299D01*
X86462Y355301D02*
X89128D01*
X87795D01*
Y363299D01*
X86462Y361966D01*
X93126D02*
X94459Y363299D01*
X97125D01*
X98458Y361966D01*
Y360633D01*
X97125Y359300D01*
X98458Y357967D01*
Y356634D01*
X97125Y355301D01*
X94459D01*
X93126Y356634D01*
Y357967D01*
X94459Y359300D01*
X93126Y360633D01*
Y361966D01*
X94459Y359300D02*
X97125D01*
X71800Y335465D02*
X74466D01*
X73133D01*
Y327467D01*
X71800D01*
X74466D01*
X82463Y335465D02*
X79798D01*
X78464Y334132D01*
Y328801D01*
X79798Y327467D01*
X82463D01*
X83796Y328801D01*
Y334132D01*
X82463Y335465D01*
X91794Y327467D02*
X86462D01*
X91794Y332799D01*
Y334132D01*
X90461Y335465D01*
X87795D01*
X86462Y334132D01*
X94459D02*
X95792Y335465D01*
X98458D01*
X99791Y334132D01*
Y328801D01*
X98458Y327467D01*
X95792D01*
X94459Y328801D01*
Y334132D01*
X71800Y307631D02*
X74466D01*
X73133D01*
Y299634D01*
X71800D01*
X74466D01*
X82463Y307631D02*
X79798D01*
X78464Y306298D01*
Y300967D01*
X79798Y299634D01*
X82463D01*
X83796Y300967D01*
Y306298D01*
X82463Y307631D01*
X91794Y299634D02*
X86462D01*
X91794Y304965D01*
Y306298D01*
X90461Y307631D01*
X87795D01*
X86462Y306298D01*
X99791Y299634D02*
X94459D01*
X99791Y304965D01*
Y306298D01*
X98458Y307631D01*
X95792D01*
X94459Y306298D01*
X71800Y279797D02*
X74466D01*
X73133D01*
Y271800D01*
X71800D01*
X74466D01*
X82463Y279797D02*
X79798D01*
X78464Y278465D01*
Y273133D01*
X79798Y271800D01*
X82463D01*
X83796Y273133D01*
Y278465D01*
X82463Y279797D01*
X91794Y271800D02*
X86462D01*
X91794Y277132D01*
Y278465D01*
X90461Y279797D01*
X87795D01*
X86462Y278465D01*
X98458Y271800D02*
Y279797D01*
X94459Y275799D01*
X99791D01*
D14*
X241669Y65002D02*
Y74998D01*
X246668D01*
X248334Y73332D01*
Y70000D01*
X246668Y68334D01*
X241669D01*
X245002D02*
X248334Y65002D01*
X258331D02*
X251666D01*
X258331Y71666D01*
Y73332D01*
X256665Y74998D01*
X253332D01*
X251666Y73332D01*
X241669Y114998D02*
Y105002D01*
X246668D01*
X248334Y106668D01*
Y113332D01*
X246668Y114998D01*
X241669D01*
X258331Y105002D02*
X251666D01*
X258331Y111666D01*
Y113332D01*
X256665Y114998D01*
X253332D01*
X251666Y113332D01*
X101669Y104998D02*
Y95002D01*
X106668D01*
X108334Y96668D01*
Y103332D01*
X106668Y104998D01*
X101669D01*
X111666Y103332D02*
X113332Y104998D01*
X116664D01*
X118331Y103332D01*
Y101666D01*
X116664Y100000D01*
X114998D01*
X116664D01*
X118331Y98334D01*
Y96668D01*
X116664Y95002D01*
X113332D01*
X111666Y96668D01*
X101669Y60002D02*
Y69998D01*
X106668D01*
X108334Y68332D01*
Y65000D01*
X106668Y63334D01*
X101669D01*
X105002D02*
X108334Y60002D01*
X111666Y68332D02*
X113332Y69998D01*
X116664D01*
X118331Y68332D01*
Y66666D01*
X116664Y65000D01*
X114998D01*
X116664D01*
X118331Y63334D01*
Y61668D01*
X116664Y60002D01*
X113332D01*
X111666Y61668D01*
X1509843Y192617D02*
Y177383D01*
X1517461D01*
X1520000Y179922D01*
Y190078D01*
X1517461Y192617D01*
X1509843D01*
X1525078Y177383D02*
X1530157D01*
X1527618D01*
Y192617D01*
X1525078Y190078D01*
X1509843Y207383D02*
Y222617D01*
X1517461D01*
X1520000Y220078D01*
Y215000D01*
X1517461Y212461D01*
X1509843D01*
X1514922D02*
X1520000Y207383D01*
X1525078D02*
X1530157D01*
X1527618D01*
Y222617D01*
X1525078Y220078D01*
X647304Y187617D02*
X657461D01*
Y185078D01*
X647304Y174922D01*
Y172383D01*
X657461D01*
X672696D02*
X662539D01*
X672696Y182539D01*
Y185078D01*
X670157Y187617D01*
X665078D01*
X662539Y185078D01*
X771952Y187617D02*
X782108D01*
Y185078D01*
X771952Y174922D01*
Y172383D01*
X782108D01*
X797343D02*
X787187D01*
X797343Y182539D01*
Y185078D01*
X794804Y187617D01*
X789726D01*
X787187Y185078D01*
X802422Y172383D02*
Y187617D01*
X810039D01*
X812578Y185078D01*
Y180000D01*
X810039Y177461D01*
X802422D01*
X817657Y187617D02*
Y172383D01*
X822735Y177461D01*
X827813Y172383D01*
Y187617D01*
X832892Y172383D02*
Y187617D01*
X840509D01*
X843048Y185078D01*
Y180000D01*
X840509Y177461D01*
X832892D01*
X837970D02*
X843048Y172383D01*
X670157Y199883D02*
X660000D01*
Y202422D01*
X670157Y212578D01*
Y215118D01*
X660000D01*
X654922D02*
X649843D01*
X652383D01*
Y199883D01*
X654922Y202422D01*
X841779Y199883D02*
X831622D01*
Y202422D01*
X841779Y212578D01*
Y215118D01*
X831622D01*
X826544D02*
X821466D01*
X824005D01*
Y199883D01*
X826544Y202422D01*
X813848Y215118D02*
Y199883D01*
X806230D01*
X803691Y202422D01*
Y207500D01*
X806230Y210039D01*
X813848D01*
X798613Y199883D02*
Y215118D01*
X793534Y210039D01*
X788456Y215118D01*
Y199883D01*
X783378Y215118D02*
Y199883D01*
X775760D01*
X773221Y202422D01*
Y207500D01*
X775760Y210039D01*
X783378D01*
X778299D02*
X773221Y215118D01*
X959804Y187617D02*
Y185078D01*
X964883Y180000D01*
X969961Y185078D01*
Y187617D01*
X964883Y180000D02*
Y172383D01*
X985196D02*
X975039D01*
X985196Y182539D01*
Y185078D01*
X982657Y187617D01*
X977578D01*
X975039Y185078D01*
X1086952Y187617D02*
Y185078D01*
X1092030Y180000D01*
X1097108Y185078D01*
Y187617D01*
X1092030Y180000D02*
Y172383D01*
X1112343D02*
X1102187D01*
X1112343Y182539D01*
Y185078D01*
X1109804Y187617D01*
X1104726D01*
X1102187Y185078D01*
X1117422Y172383D02*
Y187617D01*
X1125039D01*
X1127578Y185078D01*
Y180000D01*
X1125039Y177461D01*
X1117422D01*
X1132657Y187617D02*
Y172383D01*
X1137735Y177461D01*
X1142813Y172383D01*
Y187617D01*
X1147892Y172383D02*
Y187617D01*
X1155509D01*
X1158048Y185078D01*
Y180000D01*
X1155509Y177461D01*
X1147892D01*
X1152970D02*
X1158048Y172383D01*
X977657Y199883D02*
Y202422D01*
X972578Y207500D01*
X967500Y202422D01*
Y199883D01*
X972578Y207500D02*
Y215118D01*
X962422D02*
X957343D01*
X959883D01*
Y199883D01*
X962422Y202422D01*
X1156779Y199883D02*
Y202422D01*
X1151701Y207500D01*
X1146622Y202422D01*
Y199883D01*
X1151701Y207500D02*
Y215118D01*
X1141544D02*
X1136466D01*
X1139005D01*
Y199883D01*
X1141544Y202422D01*
X1128848Y215118D02*
Y199883D01*
X1121230D01*
X1118691Y202422D01*
Y207500D01*
X1121230Y210039D01*
X1128848D01*
X1113613Y199883D02*
Y215118D01*
X1108534Y210039D01*
X1103456Y215118D01*
Y199883D01*
X1098378Y215118D02*
Y199883D01*
X1090760D01*
X1088221Y202422D01*
Y207500D01*
X1090760Y210039D01*
X1098378D01*
X1093299D02*
X1088221Y215118D01*
X1272304Y187617D02*
X1282461Y172383D01*
Y187617D02*
X1272304Y172383D01*
X1297696D02*
X1287539D01*
X1297696Y182539D01*
Y185078D01*
X1295157Y187617D01*
X1290078D01*
X1287539Y185078D01*
X1399451Y187617D02*
X1409608Y172383D01*
Y187617D02*
X1399451Y172383D01*
X1424843D02*
X1414687D01*
X1424843Y182539D01*
Y185078D01*
X1422304Y187617D01*
X1417226D01*
X1414687Y185078D01*
X1429922Y172383D02*
Y187617D01*
X1437539D01*
X1440078Y185078D01*
Y180000D01*
X1437539Y177461D01*
X1429922D01*
X1445157Y187617D02*
Y172383D01*
X1450235Y177461D01*
X1455314Y172383D01*
Y187617D01*
X1460392Y172383D02*
Y187617D01*
X1468009D01*
X1470549Y185078D01*
Y180000D01*
X1468009Y177461D01*
X1460392D01*
X1465470D02*
X1470549Y172383D01*
X1295157Y199883D02*
X1285000Y215118D01*
Y199883D02*
X1295157Y215118D01*
X1279922D02*
X1274843D01*
X1277383D01*
Y199883D01*
X1279922Y202422D01*
X1469279Y199883D02*
X1459122Y215118D01*
Y199883D02*
X1469279Y215118D01*
X1454044D02*
X1448965D01*
X1451505D01*
Y199883D01*
X1454044Y202422D01*
X1441348Y215118D02*
Y199883D01*
X1433730D01*
X1431191Y202422D01*
Y207500D01*
X1433730Y210039D01*
X1441348D01*
X1426113Y199883D02*
Y215118D01*
X1421035Y210039D01*
X1415956Y215118D01*
Y199883D01*
X1410878Y215118D02*
Y199883D01*
X1403260D01*
X1400721Y202422D01*
Y207500D01*
X1403260Y210039D01*
X1410878D01*
X1405800D02*
X1400721Y215118D01*
X1571348Y153104D02*
X1556113D01*
Y160721D01*
X1558652Y163260D01*
X1563730D01*
X1566270Y160721D01*
Y153104D01*
X1556113Y168339D02*
X1571348D01*
X1566270Y173417D01*
X1571348Y178495D01*
X1556113D01*
X1571348Y183574D02*
X1556113D01*
Y191191D01*
X1558652Y193730D01*
X1563730D01*
X1566270Y191191D01*
Y183574D01*
Y188652D02*
X1571348Y193730D01*
X1573887Y198809D02*
Y208965D01*
X1556113Y214044D02*
Y219122D01*
Y216583D01*
X1571348D01*
Y214044D01*
Y219122D01*
Y226740D02*
X1556113D01*
X1571348Y236896D01*
X1556113D01*
X1692383Y304608D02*
Y294452D01*
X1707617D01*
Y304608D01*
X1700000Y294452D02*
Y299530D01*
X1694922Y319843D02*
X1692383Y317304D01*
Y312226D01*
X1694922Y309687D01*
X1697461D01*
X1700000Y312226D01*
Y317304D01*
X1702539Y319843D01*
X1705078D01*
X1707617Y317304D01*
Y312226D01*
X1705078Y309687D01*
X1692383Y324922D02*
Y335078D01*
Y330000D01*
X1707617D01*
X1692383Y347774D02*
Y342696D01*
X1694922Y340157D01*
X1705078D01*
X1707617Y342696D01*
Y347774D01*
X1705078Y350313D01*
X1694922D01*
X1692383Y347774D01*
X1707617Y355392D02*
X1692383D01*
Y363009D01*
X1694922Y365549D01*
X1700000D01*
X1702539Y363009D01*
Y355392D01*
X1707617Y44687D02*
X1697461D01*
X1692383Y49765D01*
X1697461Y54843D01*
X1707617D01*
X1700000D01*
Y44687D01*
X1692383Y59922D02*
X1705078D01*
X1707617Y62461D01*
Y67539D01*
X1705078Y70078D01*
X1692383D01*
Y75157D02*
X1707617Y85313D01*
X1692383D02*
X1707617Y75157D01*
X334804Y172383D02*
Y182539D01*
X339883Y187617D01*
X344961Y182539D01*
Y172383D01*
Y180000D01*
X334804D01*
X360196Y172383D02*
X350039D01*
X360196Y182539D01*
Y185078D01*
X357657Y187617D01*
X352578D01*
X350039Y185078D01*
X456951Y172383D02*
Y182539D01*
X462030Y187617D01*
X467108Y182539D01*
Y172383D01*
Y180000D01*
X456951D01*
X482343Y172383D02*
X472187D01*
X482343Y182539D01*
Y185078D01*
X479804Y187617D01*
X474726D01*
X472187Y185078D01*
X487422Y172383D02*
Y187617D01*
X495039D01*
X497578Y185078D01*
Y180000D01*
X495039Y177461D01*
X487422D01*
X502657Y187617D02*
Y172383D01*
X507735Y177461D01*
X512813Y172383D01*
Y187617D01*
X517892Y172383D02*
Y187617D01*
X525509D01*
X528049Y185078D01*
Y180000D01*
X525509Y177461D01*
X517892D01*
X522970D02*
X528049Y172383D01*
X355157Y215118D02*
Y204961D01*
X350078Y199883D01*
X345000Y204961D01*
Y215118D01*
Y207500D01*
X355157D01*
X339922Y215118D02*
X334843D01*
X337383D01*
Y199883D01*
X339922Y202422D01*
X526779Y215118D02*
Y204961D01*
X521701Y199883D01*
X516622Y204961D01*
Y215118D01*
Y207500D01*
X526779D01*
X511544Y215118D02*
X506465D01*
X509005D01*
Y199883D01*
X511544Y202422D01*
X498848Y215118D02*
Y199883D01*
X491230D01*
X488691Y202422D01*
Y207500D01*
X491230Y210039D01*
X498848D01*
X483613Y199883D02*
Y215118D01*
X478535Y210039D01*
X473456Y215118D01*
Y199883D01*
X468378Y215118D02*
Y199883D01*
X460760D01*
X458221Y202422D01*
Y207500D01*
X460760Y210039D01*
X468378D01*
X463299D02*
X458221Y215118D01*
D15*
X1638538Y119536D02*
X1634539D01*
X1632540Y117537D01*
Y109539D01*
X1634539Y107540D01*
X1638538D01*
X1640537Y109539D01*
Y117537D01*
X1638538Y119536D01*
X1644536Y115537D02*
Y109539D01*
X1646535Y107540D01*
X1652534D01*
Y115537D01*
X1658532Y117537D02*
Y115537D01*
X1656532D01*
X1660531D01*
X1658532D01*
Y109539D01*
X1660531Y107540D01*
X1674526D02*
X1666529D01*
X1674526Y115537D01*
Y117537D01*
X1672527Y119536D01*
X1668528D01*
X1666529Y117537D01*
X1583538Y119536D02*
X1579539D01*
X1577540Y117537D01*
Y109539D01*
X1579539Y107540D01*
X1583538D01*
X1585537Y109539D01*
Y117537D01*
X1583538Y119536D01*
X1589536Y115537D02*
Y109539D01*
X1591535Y107540D01*
X1597534D01*
Y115537D01*
X1603532Y117537D02*
Y115537D01*
X1601532D01*
X1605531D01*
X1603532D01*
Y109539D01*
X1605531Y107540D01*
X1611529D02*
X1615528D01*
X1613528D01*
Y119536D01*
X1611529Y117537D01*
X1527540Y107540D02*
Y119536D01*
X1533538D01*
X1535537Y117537D01*
Y113538D01*
X1533538Y111539D01*
X1527540D01*
X1539536Y119536D02*
Y107540D01*
X1543535Y111539D01*
X1547534Y107540D01*
Y119536D01*
X1551532Y107540D02*
Y119536D01*
X1555531Y115537D01*
X1559530Y119536D01*
Y107540D01*
X1661963Y269963D02*
X1663962Y267964D01*
X1667961D01*
X1669960Y269963D01*
Y277961D01*
X1667961Y279960D01*
X1663962D01*
X1661963Y277961D01*
Y273962D01*
X1665961D01*
X1657964Y279960D02*
Y267964D01*
X1649966Y279960D01*
Y267964D01*
X1645968D02*
Y279960D01*
X1639970D01*
X1637970Y277961D01*
Y269963D01*
X1639970Y267964D01*
X1645968D01*
X1606963D02*
X1614960D01*
Y273962D01*
X1610961Y271963D01*
X1608962D01*
X1606963Y273962D01*
Y277961D01*
X1608962Y279960D01*
X1612961D01*
X1614960Y277961D01*
X1602964Y267964D02*
Y275961D01*
X1598965Y279960D01*
X1594966Y275961D01*
Y267964D01*
X527537Y276963D02*
X529536Y278962D01*
Y282961D01*
X527537Y284960D01*
X519539D01*
X517540Y282961D01*
Y278962D01*
X519539Y276963D01*
X523538D01*
Y280961D01*
X517540Y272964D02*
X529536D01*
X517540Y264967D01*
X529536D01*
Y260968D02*
X517540D01*
Y254970D01*
X519539Y252970D01*
X527537D01*
X529536Y254970D01*
Y260968D01*
X477036Y276963D02*
Y284960D01*
X471038D01*
X473037Y280961D01*
Y278962D01*
X471038Y276963D01*
X467039D01*
X465040Y278962D01*
Y282961D01*
X467039Y284960D01*
X477036Y272964D02*
X469039D01*
X465040Y268965D01*
X469039Y264967D01*
X477036D01*
X402036Y276963D02*
Y284960D01*
X390040D01*
Y276963D01*
X396038Y284960D02*
Y280961D01*
X390040Y272964D02*
X402036D01*
X390040Y264967D01*
X402036D01*
X390040Y260968D02*
X398037D01*
X402036Y256969D01*
X398037Y252970D01*
X390040D01*
X396038D01*
Y260968D01*
X402036Y248972D02*
X390040D01*
Y242974D01*
X392039Y240974D01*
X394039D01*
X396038Y242974D01*
Y248972D01*
Y242974D01*
X398037Y240974D01*
X400037D01*
X402036Y242974D01*
Y248972D01*
Y236975D02*
X390040D01*
Y228978D01*
X402036Y216982D02*
Y224979D01*
X390040D01*
Y216982D01*
X396038Y224979D02*
Y220981D01*
X390040Y212983D02*
Y208985D01*
Y210984D01*
X402036D01*
X400037Y212983D01*
X346535Y276963D02*
X348535Y278962D01*
Y282961D01*
X346535Y284960D01*
X344536D01*
X342537Y282961D01*
Y278962D01*
X340537Y276963D01*
X338538D01*
X336539Y278962D01*
Y282961D01*
X338538Y284960D01*
X346535Y270965D02*
X344536D01*
Y272964D01*
Y268965D01*
Y270965D01*
X338538D01*
X336539Y268965D01*
Y256969D02*
Y260968D01*
X338538Y262967D01*
X342537D01*
X344536Y260968D01*
Y256969D01*
X342537Y254970D01*
X340537D01*
Y262967D01*
X332540Y250971D02*
X344536D01*
Y244973D01*
X342537Y242974D01*
X338538D01*
X336539Y244973D01*
Y250971D01*
X297036Y284960D02*
X285040D01*
Y278962D01*
X287039Y276963D01*
X295037D01*
X297036Y278962D01*
Y284960D01*
Y272964D02*
Y268965D01*
Y270965D01*
X285040D01*
Y272964D01*
Y268965D01*
Y262967D02*
X297036D01*
Y256969D01*
X295037Y254970D01*
X291038D01*
X289039Y256969D01*
Y262967D01*
Y258968D02*
X285040Y254970D01*
X840037Y276963D02*
X842036Y278962D01*
Y282961D01*
X840037Y284960D01*
X832039D01*
X830040Y282961D01*
Y278962D01*
X832039Y276963D01*
X836038D01*
Y280961D01*
X830040Y272964D02*
X842036D01*
X830040Y264967D01*
X842036D01*
Y260968D02*
X830040D01*
Y254970D01*
X832039Y252970D01*
X840037D01*
X842036Y254970D01*
Y260968D01*
X789536Y276963D02*
Y284960D01*
X783538D01*
X785537Y280961D01*
Y278962D01*
X783538Y276963D01*
X779539D01*
X777540Y278962D01*
Y282961D01*
X779539Y284960D01*
X789536Y272964D02*
X781539D01*
X777540Y268965D01*
X781539Y264967D01*
X789536D01*
X714536Y276963D02*
Y284960D01*
X702540D01*
Y276963D01*
X708538Y284960D02*
Y280961D01*
X702540Y272964D02*
X714536D01*
X702540Y264967D01*
X714536D01*
X702540Y260968D02*
X710537D01*
X714536Y256969D01*
X710537Y252970D01*
X702540D01*
X708538D01*
Y260968D01*
X714536Y248972D02*
X702540D01*
Y242974D01*
X704539Y240974D01*
X706539D01*
X708538Y242974D01*
Y248972D01*
Y242974D01*
X710537Y240974D01*
X712537D01*
X714536Y242974D01*
Y248972D01*
Y236975D02*
X702540D01*
Y228978D01*
X714536Y216982D02*
Y224979D01*
X702540D01*
Y216982D01*
X708538Y224979D02*
Y220981D01*
X702540Y212983D02*
Y208985D01*
Y210984D01*
X714536D01*
X712537Y212983D01*
X659035Y276963D02*
X661035Y278962D01*
Y282961D01*
X659035Y284960D01*
X657036D01*
X655037Y282961D01*
Y278962D01*
X653037Y276963D01*
X651038D01*
X649039Y278962D01*
Y282961D01*
X651038Y284960D01*
X659035Y270965D02*
X657036D01*
Y272964D01*
Y268965D01*
Y270965D01*
X651038D01*
X649039Y268965D01*
Y256969D02*
Y260968D01*
X651038Y262967D01*
X655037D01*
X657036Y260968D01*
Y256969D01*
X655037Y254970D01*
X653037D01*
Y262967D01*
X645040Y250971D02*
X657036D01*
Y244973D01*
X655037Y242974D01*
X651038D01*
X649039Y244973D01*
Y250971D01*
X609536Y284960D02*
X597540D01*
Y278962D01*
X599539Y276963D01*
X607537D01*
X609536Y278962D01*
Y284960D01*
Y272964D02*
Y268965D01*
Y270965D01*
X597540D01*
Y272964D01*
Y268965D01*
Y262967D02*
X609536D01*
Y256969D01*
X607537Y254970D01*
X603538D01*
X601539Y256969D01*
Y262967D01*
Y258968D02*
X597540Y254970D01*
X1152537Y276963D02*
X1154536Y278962D01*
Y282961D01*
X1152537Y284960D01*
X1144539D01*
X1142540Y282961D01*
Y278962D01*
X1144539Y276963D01*
X1148538D01*
Y280961D01*
X1142540Y272964D02*
X1154536D01*
X1142540Y264967D01*
X1154536D01*
Y260968D02*
X1142540D01*
Y254970D01*
X1144539Y252970D01*
X1152537D01*
X1154536Y254970D01*
Y260968D01*
X1102036Y276963D02*
Y284960D01*
X1096038D01*
X1098037Y280961D01*
Y278962D01*
X1096038Y276963D01*
X1092039D01*
X1090040Y278962D01*
Y282961D01*
X1092039Y284960D01*
X1102036Y272964D02*
X1094039D01*
X1090040Y268965D01*
X1094039Y264967D01*
X1102036D01*
X1027036Y276963D02*
Y284960D01*
X1015040D01*
Y276963D01*
X1021038Y284960D02*
Y280961D01*
X1015040Y272964D02*
X1027036D01*
X1015040Y264967D01*
X1027036D01*
X1015040Y260968D02*
X1023037D01*
X1027036Y256969D01*
X1023037Y252970D01*
X1015040D01*
X1021038D01*
Y260968D01*
X1027036Y248972D02*
X1015040D01*
Y242974D01*
X1017039Y240974D01*
X1019039D01*
X1021038Y242974D01*
Y248972D01*
Y242974D01*
X1023037Y240974D01*
X1025037D01*
X1027036Y242974D01*
Y248972D01*
Y236975D02*
X1015040D01*
Y228978D01*
X1027036Y216982D02*
Y224979D01*
X1015040D01*
Y216982D01*
X1021038Y224979D02*
Y220981D01*
X1015040Y212983D02*
Y208985D01*
Y210984D01*
X1027036D01*
X1025037Y212983D01*
X971535Y276963D02*
X973535Y278962D01*
Y282961D01*
X971535Y284960D01*
X969536D01*
X967537Y282961D01*
Y278962D01*
X965537Y276963D01*
X963538D01*
X961539Y278962D01*
Y282961D01*
X963538Y284960D01*
X971535Y270965D02*
X969536D01*
Y272964D01*
Y268965D01*
Y270965D01*
X963538D01*
X961539Y268965D01*
Y256969D02*
Y260968D01*
X963538Y262967D01*
X967537D01*
X969536Y260968D01*
Y256969D01*
X967537Y254970D01*
X965537D01*
Y262967D01*
X957540Y250971D02*
X969536D01*
Y244973D01*
X967537Y242974D01*
X963538D01*
X961539Y244973D01*
Y250971D01*
X922036Y284960D02*
X910040D01*
Y278962D01*
X912039Y276963D01*
X920037D01*
X922036Y278962D01*
Y284960D01*
Y272964D02*
Y268965D01*
Y270965D01*
X910040D01*
Y272964D01*
Y268965D01*
Y262967D02*
X922036D01*
Y256969D01*
X920037Y254970D01*
X916038D01*
X914039Y256969D01*
Y262967D01*
Y258968D02*
X910040Y254970D01*
X1467537Y276963D02*
X1469536Y278962D01*
Y282961D01*
X1467537Y284960D01*
X1459539D01*
X1457540Y282961D01*
Y278962D01*
X1459539Y276963D01*
X1463538D01*
Y280961D01*
X1457540Y272964D02*
X1469536D01*
X1457540Y264967D01*
X1469536D01*
Y260968D02*
X1457540D01*
Y254970D01*
X1459539Y252970D01*
X1467537D01*
X1469536Y254970D01*
Y260968D01*
X1417036Y276963D02*
Y284960D01*
X1411038D01*
X1413038Y280961D01*
Y278962D01*
X1411038Y276963D01*
X1407039D01*
X1405040Y278962D01*
Y282961D01*
X1407039Y284960D01*
X1417036Y272964D02*
X1409039D01*
X1405040Y268965D01*
X1409039Y264967D01*
X1417036D01*
X1342036Y276963D02*
Y284960D01*
X1330040D01*
Y276963D01*
X1336038Y284960D02*
Y280961D01*
X1330040Y272964D02*
X1342036D01*
X1330040Y264967D01*
X1342036D01*
X1330040Y260968D02*
X1338038D01*
X1342036Y256969D01*
X1338038Y252970D01*
X1330040D01*
X1336038D01*
Y260968D01*
X1342036Y248972D02*
X1330040D01*
Y242974D01*
X1332039Y240974D01*
X1334039D01*
X1336038Y242974D01*
Y248972D01*
Y242974D01*
X1338038Y240974D01*
X1340037D01*
X1342036Y242974D01*
Y248972D01*
Y236975D02*
X1330040D01*
Y228978D01*
X1342036Y216982D02*
Y224979D01*
X1330040D01*
Y216982D01*
X1336038Y224979D02*
Y220981D01*
X1330040Y212983D02*
Y208985D01*
Y210984D01*
X1342036D01*
X1340037Y212983D01*
X1286535Y276963D02*
X1288535Y278962D01*
Y282961D01*
X1286535Y284960D01*
X1284536D01*
X1282537Y282961D01*
Y278962D01*
X1280537Y276963D01*
X1278538D01*
X1276539Y278962D01*
Y282961D01*
X1278538Y284960D01*
X1286535Y270965D02*
X1284536D01*
Y272964D01*
Y268965D01*
Y270965D01*
X1278538D01*
X1276539Y268965D01*
Y256969D02*
Y260968D01*
X1278538Y262967D01*
X1282537D01*
X1284536Y260968D01*
Y256969D01*
X1282537Y254970D01*
X1280537D01*
Y262967D01*
X1272540Y250971D02*
X1284536D01*
Y244973D01*
X1282537Y242974D01*
X1278538D01*
X1276539Y244973D01*
Y250971D01*
X1237036Y284960D02*
X1225040D01*
Y278962D01*
X1227039Y276963D01*
X1235037D01*
X1237036Y278962D01*
Y284960D01*
Y272964D02*
Y268965D01*
Y270965D01*
X1225040D01*
Y272964D01*
Y268965D01*
Y262967D02*
X1237036D01*
Y256969D01*
X1235037Y254970D01*
X1231038D01*
X1229039Y256969D01*
Y262967D01*
Y258968D02*
X1225040Y254970D01*
X1574463Y266465D02*
X1582460D01*
Y278461D01*
X1574463D01*
X1582460Y272463D02*
X1578461D01*
X1570464D02*
X1562466D01*
X1558468Y278461D02*
X1552470D01*
X1550470Y276462D01*
X1552470Y274463D01*
X1556468D01*
X1558468Y272463D01*
X1556468Y270464D01*
X1550470D01*
X1544472Y268465D02*
Y270464D01*
X1546472D01*
X1542473D01*
X1544472D01*
Y276462D01*
X1542473Y278461D01*
X1534476D02*
X1530477D01*
X1528477Y276462D01*
Y272463D01*
X1530477Y270464D01*
X1534476D01*
X1536475Y272463D01*
Y276462D01*
X1534476Y278461D01*
X1524479Y282460D02*
Y270464D01*
X1518481D01*
X1516481Y272463D01*
Y276462D01*
X1518481Y278461D01*
X1524479D01*
X1585464Y215537D02*
Y207540D01*
X1591462D01*
X1589463Y211539D01*
Y213538D01*
X1591462Y215537D01*
X1595461D01*
X1597460Y213538D01*
Y209539D01*
X1595461Y207540D01*
X1585464Y219536D02*
X1593461D01*
X1597460Y223535D01*
X1593461Y227533D01*
X1585464D01*
X1587463Y160537D02*
X1585464Y158538D01*
Y154539D01*
X1587463Y152540D01*
X1595461D01*
X1597460Y154539D01*
Y158538D01*
X1595461Y160537D01*
X1591462D01*
Y156539D01*
X1597460Y164536D02*
X1585464D01*
X1597460Y172533D01*
X1585464D01*
Y176532D02*
X1597460D01*
Y182530D01*
X1595461Y184530D01*
X1587463D01*
X1585464Y182530D01*
Y176532D01*
X1280965Y115537D02*
X1278965Y113538D01*
Y109539D01*
X1280965Y107540D01*
X1282964D01*
X1284963Y109539D01*
Y113538D01*
X1286963Y115537D01*
X1288962D01*
X1290961Y113538D01*
Y109539D01*
X1288962Y107540D01*
X1280965Y121536D02*
X1282964D01*
Y119536D01*
Y123535D01*
Y121536D01*
X1288962D01*
X1290961Y123535D01*
Y135531D02*
Y131532D01*
X1288962Y129533D01*
X1284963D01*
X1282964Y131532D01*
Y135531D01*
X1284963Y137530D01*
X1286963D01*
Y129533D01*
X1294960Y141529D02*
X1282964D01*
Y147527D01*
X1284963Y149526D01*
X1288962D01*
X1290961Y147527D01*
Y141529D01*
X1330464Y107540D02*
X1342460D01*
Y113538D01*
X1340461Y115537D01*
X1332463D01*
X1330464Y113538D01*
Y107540D01*
Y119536D02*
Y123535D01*
Y121535D01*
X1342460D01*
Y119536D01*
Y123535D01*
Y129533D02*
X1330464D01*
Y135531D01*
X1332463Y137530D01*
X1336462D01*
X1338461Y135531D01*
Y129533D01*
Y133532D02*
X1342460Y137530D01*
X1227964Y115537D02*
Y107540D01*
X1239960D01*
Y115537D01*
X1233962Y107540D02*
Y111539D01*
X1239960Y119536D02*
X1227964D01*
X1239960Y127534D01*
X1227964D01*
X1239960Y131532D02*
X1231963D01*
X1227964Y135531D01*
X1231963Y139530D01*
X1239960D01*
X1233962D01*
Y131532D01*
X1227964Y143528D02*
X1239960D01*
Y149526D01*
X1237961Y151526D01*
X1235961D01*
X1233962Y149526D01*
Y143528D01*
Y149526D01*
X1231963Y151526D01*
X1229963D01*
X1227964Y149526D01*
Y143528D01*
Y155524D02*
X1239960D01*
Y163522D01*
X1227964Y175518D02*
Y167521D01*
X1239960D01*
Y175518D01*
X1233962Y167521D02*
Y171519D01*
X1239960Y187514D02*
Y179517D01*
X1231963Y187514D01*
X1229963D01*
X1227964Y185515D01*
Y181516D01*
X1229963Y179517D01*
X1455464Y115537D02*
Y107540D01*
X1461462D01*
X1459463Y111539D01*
Y113538D01*
X1461462Y115537D01*
X1465461D01*
X1467460Y113538D01*
Y109539D01*
X1465461Y107540D01*
X1455464Y119536D02*
X1463461D01*
X1467460Y123535D01*
X1463461Y127534D01*
X1455464D01*
X1407463Y115537D02*
X1405464Y113538D01*
Y109539D01*
X1407463Y107540D01*
X1415461D01*
X1417460Y109539D01*
Y113538D01*
X1415461Y115537D01*
X1411462D01*
Y111539D01*
X1417460Y119536D02*
X1405464D01*
X1417460Y127534D01*
X1405464D01*
Y131532D02*
X1417460D01*
Y137530D01*
X1415461Y139530D01*
X1407463D01*
X1405464Y137530D01*
Y131532D01*
X968465Y115537D02*
X966465Y113538D01*
Y109539D01*
X968465Y107540D01*
X970464D01*
X972463Y109539D01*
Y113538D01*
X974463Y115537D01*
X976462D01*
X978461Y113538D01*
Y109539D01*
X976462Y107540D01*
X968465Y121536D02*
X970464D01*
Y119536D01*
Y123535D01*
Y121536D01*
X976462D01*
X978461Y123535D01*
Y135531D02*
Y131532D01*
X976462Y129533D01*
X972463D01*
X970464Y131532D01*
Y135531D01*
X972463Y137530D01*
X974463D01*
Y129533D01*
X982460Y141529D02*
X970464D01*
Y147527D01*
X972463Y149526D01*
X976462D01*
X978461Y147527D01*
Y141529D01*
X1017964Y107540D02*
X1029960D01*
Y113538D01*
X1027961Y115537D01*
X1019963D01*
X1017964Y113538D01*
Y107540D01*
Y119536D02*
Y123535D01*
Y121536D01*
X1029960D01*
Y119536D01*
Y123535D01*
Y129533D02*
X1017964D01*
Y135531D01*
X1019963Y137530D01*
X1023962D01*
X1025961Y135531D01*
Y129533D01*
Y133532D02*
X1029960Y137530D01*
X915464Y115537D02*
Y107540D01*
X927460D01*
Y115537D01*
X921462Y107540D02*
Y111539D01*
X927460Y119536D02*
X915464D01*
X927460Y127534D01*
X915464D01*
X927460Y131532D02*
X919463D01*
X915464Y135531D01*
X919463Y139530D01*
X927460D01*
X921462D01*
Y131532D01*
X915464Y143528D02*
X927460D01*
Y149526D01*
X925461Y151526D01*
X923461D01*
X921462Y149526D01*
Y143528D01*
Y149526D01*
X919463Y151526D01*
X917463D01*
X915464Y149526D01*
Y143528D01*
Y155524D02*
X927460D01*
Y163522D01*
X915464Y175518D02*
Y167521D01*
X927460D01*
Y175518D01*
X921462Y167521D02*
Y171519D01*
X927460Y187514D02*
Y179517D01*
X919463Y187514D01*
X917463D01*
X915464Y185515D01*
Y181516D01*
X917463Y179517D01*
X1142964Y115537D02*
Y107540D01*
X1148962D01*
X1146963Y111539D01*
Y113538D01*
X1148962Y115537D01*
X1152961D01*
X1154960Y113538D01*
Y109539D01*
X1152961Y107540D01*
X1142964Y119536D02*
X1150961D01*
X1154960Y123535D01*
X1150961Y127534D01*
X1142964D01*
X1094963Y115537D02*
X1092964Y113538D01*
Y109539D01*
X1094963Y107540D01*
X1102961D01*
X1104960Y109539D01*
Y113538D01*
X1102961Y115537D01*
X1098962D01*
Y111539D01*
X1104960Y119536D02*
X1092964D01*
X1104960Y127534D01*
X1092964D01*
Y131532D02*
X1104960D01*
Y137530D01*
X1102961Y139530D01*
X1094963D01*
X1092964Y137530D01*
Y131532D01*
X655965Y115537D02*
X653965Y113538D01*
Y109539D01*
X655965Y107540D01*
X657964D01*
X659963Y109539D01*
Y113538D01*
X661963Y115537D01*
X663962D01*
X665961Y113538D01*
Y109539D01*
X663962Y107540D01*
X655965Y121536D02*
X657964D01*
Y119536D01*
Y123535D01*
Y121536D01*
X663962D01*
X665961Y123535D01*
Y135531D02*
Y131532D01*
X663962Y129533D01*
X659963D01*
X657964Y131532D01*
Y135531D01*
X659963Y137530D01*
X661963D01*
Y129533D01*
X669960Y141529D02*
X657964D01*
Y147527D01*
X659963Y149526D01*
X663962D01*
X665961Y147527D01*
Y141529D01*
X705464Y107540D02*
X717460D01*
Y113538D01*
X715461Y115537D01*
X707463D01*
X705464Y113538D01*
Y107540D01*
Y119536D02*
Y123535D01*
Y121535D01*
X717460D01*
Y119536D01*
Y123535D01*
Y129533D02*
X705464D01*
Y135531D01*
X707463Y137530D01*
X711462D01*
X713461Y135531D01*
Y129533D01*
Y133532D02*
X717460Y137530D01*
X602964Y115537D02*
Y107540D01*
X614960D01*
Y115537D01*
X608962Y107540D02*
Y111539D01*
X614960Y119536D02*
X602964D01*
X614960Y127534D01*
X602964D01*
X614960Y131532D02*
X606963D01*
X602964Y135531D01*
X606963Y139530D01*
X614960D01*
X608962D01*
Y131532D01*
X602964Y143528D02*
X614960D01*
Y149526D01*
X612961Y151526D01*
X610961D01*
X608962Y149526D01*
Y143528D01*
Y149526D01*
X606963Y151526D01*
X604963D01*
X602964Y149526D01*
Y143528D01*
Y155524D02*
X614960D01*
Y163522D01*
X602964Y175518D02*
Y167521D01*
X614960D01*
Y175518D01*
X608962Y167521D02*
Y171519D01*
X614960Y187514D02*
Y179517D01*
X606963Y187514D01*
X604963D01*
X602964Y185515D01*
Y181516D01*
X604963Y179517D01*
X830464Y115537D02*
Y107540D01*
X836462D01*
X834463Y111539D01*
Y113538D01*
X836462Y115537D01*
X840461D01*
X842460Y113538D01*
Y109539D01*
X840461Y107540D01*
X830464Y119536D02*
X838461D01*
X842460Y123535D01*
X838461Y127534D01*
X830464D01*
X782463Y115537D02*
X780464Y113538D01*
Y109539D01*
X782463Y107540D01*
X790461D01*
X792460Y109539D01*
Y113538D01*
X790461Y115537D01*
X786462D01*
Y111539D01*
X792460Y119536D02*
X780464D01*
X792460Y127534D01*
X780464D01*
Y131532D02*
X792460D01*
Y137530D01*
X790461Y139530D01*
X782463D01*
X780464Y137530D01*
Y131532D01*
X469963Y115537D02*
X467964Y113538D01*
Y109539D01*
X469963Y107540D01*
X477961D01*
X479960Y109539D01*
Y113538D01*
X477961Y115537D01*
X473962D01*
Y111539D01*
X479960Y119536D02*
X467964D01*
X479960Y127534D01*
X467964D01*
Y131532D02*
X479960D01*
Y137530D01*
X477961Y139530D01*
X469963D01*
X467964Y137530D01*
Y131532D01*
X517964Y115537D02*
Y107540D01*
X523962D01*
X521963Y111539D01*
Y113538D01*
X523962Y115537D01*
X527961D01*
X529960Y113538D01*
Y109539D01*
X527961Y107540D01*
X517964Y119536D02*
X525961D01*
X529960Y123535D01*
X525961Y127534D01*
X517964D01*
X290464Y115537D02*
Y107540D01*
X302460D01*
Y115537D01*
X296462Y107540D02*
Y111539D01*
X302460Y119536D02*
X290464D01*
X302460Y127534D01*
X290464D01*
X302460Y131532D02*
X294463D01*
X290464Y135531D01*
X294463Y139530D01*
X302460D01*
X296462D01*
Y131532D01*
X290464Y143528D02*
X302460D01*
Y149526D01*
X300461Y151526D01*
X298461D01*
X296462Y149526D01*
Y143528D01*
Y149526D01*
X294463Y151526D01*
X292463D01*
X290464Y149526D01*
Y143528D01*
Y155525D02*
X302460D01*
Y163522D01*
X290464Y175518D02*
Y167521D01*
X302460D01*
Y175518D01*
X296462Y167521D02*
Y171519D01*
X302460Y187514D02*
Y179517D01*
X294463Y187514D01*
X292463D01*
X290464Y185515D01*
Y181516D01*
X292463Y179517D01*
X392964Y107540D02*
X404960D01*
Y113538D01*
X402961Y115537D01*
X394963D01*
X392964Y113538D01*
Y107540D01*
Y119536D02*
Y123535D01*
Y121535D01*
X404960D01*
Y119536D01*
Y123535D01*
Y129533D02*
X392964D01*
Y135531D01*
X394963Y137530D01*
X398962D01*
X400961Y135531D01*
Y129533D01*
Y133532D02*
X404960Y137530D01*
X343465Y115537D02*
X341465Y113538D01*
Y109539D01*
X343465Y107540D01*
X345464D01*
X347463Y109539D01*
Y113538D01*
X349463Y115537D01*
X351462D01*
X353461Y113538D01*
Y109539D01*
X351462Y107540D01*
X343465Y121536D02*
X345464D01*
Y119536D01*
Y123535D01*
Y121536D01*
X351462D01*
X353461Y123535D01*
Y135531D02*
Y131532D01*
X351462Y129533D01*
X347463D01*
X345464Y131532D01*
Y135531D01*
X347463Y137530D01*
X349463D01*
Y129533D01*
X357460Y141529D02*
X345464D01*
Y147527D01*
X347463Y149526D01*
X351462D01*
X353461Y147527D01*
Y141529D01*
M02*
